<?xml version="1.0" encoding="UTF-8" standalone="no"?>
<!-- Generator: Adobe Illustrator 16.0.0, SVG Export Plug-In . SVG Version: 6.00 Build 0)  -->

<svg
   version="1.2"
   id="Layer_1"
   x="0px"
   y="0px"
   viewBox="0 0 512 512"
   xml:space="preserve"
   width="512"
   height="512"
   xmlns:xlink="http://www.w3.org/1999/xlink"
   xmlns="http://www.w3.org/2000/svg"
   xmlns:svg="http://www.w3.org/2000/svg"><defs
   id="defs20"><linearGradient
     id="linearGradient22"><stop
       style="stop-color:#262017;stop-opacity:1;"
       offset="0"
       id="stop22" /><stop
       style="stop-color:#0a1010;stop-opacity:1;"
       offset="1"
       id="stop24" /></linearGradient><linearGradient
     xlink:href="#linearGradient22"
     id="linearGradient23"
     x1="256"
     y1="0"
     x2="256"
     y2="512"
     gradientUnits="userSpaceOnUse" /></defs>
<g
   id="layer3"
   style="display:inline"><rect
     style="display:inline;fill:#2696ee;fill-opacity:1;stroke-width:1.51716"
     id="rect22-1"
     width="504"
     height="504"
     x="4"
     y="4"
     rx="94.5"
     ry="94.5" /></g><g
   id="layer1"
   style="display:inline"
   transform="translate(-254.17352,-248.60299)"><path
     id="rect22"
     style="display:inline;fill:url(#linearGradient23);stroke-width:1.54124"
     d="M 96,0 C 42.816,0 0,42.816 0,96 v 320 c 0,53.184 42.816,96 96,96 h 320 c 53.184,0 96,-42.816 96,-96 V 96 C 512,42.816 469.184,0 416,0 Z m 157.99219,102.5 130.48242,30.51367 -7.49414,8.29688 H 253.99219 131.00391 l -7.49219,-8.29688 z m -124.59375,46.83984 h 249.1875 v 26.76563 h -249.1875 z m 20.59179,32.28907 c 3.68492,0.006 7.35532,0.38003 11.00586,1.17578 0.88603,0.19364 1.33869,0.42393 1.39063,1.49219 0.6021,12.3728 1.40001,24.73649 1.88476,37.11328 0.5149,13.13584 0.85551,26.28291 1.07032,39.42773 0.15273,9.31564 0.0571,18.637 -0.0899,27.95508 -0.16274,10.33696 -0.3917,20.67659 -0.81054,31.00586 -0.44885,11.08525 -1.14345,22.1619 -1.75196,33.24023 -0.11683,2.12241 -0.33392,4.24127 -0.5,6.30469 -4.0908,1.06441 -8.14625,1.67786 -12.19922,1.72852 -4.05309,-0.0505 -8.10893,-0.66411 -12.19921,-1.72852 -0.16621,-2.06342 -0.3833,-4.18164 -0.5,-6.30469 -0.60851,-11.0782 -1.30116,-22.15498 -1.75,-33.24023 -0.41859,-10.32927 -0.64768,-20.6689 -0.81055,-31.00586 -0.14748,-9.31808 -0.24194,-18.63944 -0.0898,-27.95508 0.21417,-13.14482 0.55543,-26.29189 1.07032,-39.42773 0.48475,-12.37666 1.28071,-24.74048 1.88281,-37.11328 0.0519,-1.06826 0.50447,-1.29919 1.39063,-1.49219 3.65028,-0.79575 7.32082,-1.17001 11.00585,-1.17578 z m 67.84766,0 c 3.68453,0.006 7.35401,0.38003 11.00391,1.17578 0.88666,0.19364 1.33868,0.42393 1.39062,1.49219 0.60146,12.3728 1.39937,24.73649 1.88477,37.11328 0.51489,13.13584 0.8555,26.28291 1.07031,39.42773 0.15184,9.31564 0.0584,18.637 -0.0898,27.95508 -0.16338,10.33696 -0.39171,20.67659 -0.81055,31.00586 -0.44885,11.08525 -1.14421,22.1619 -1.75195,33.24023 -0.11683,2.12241 -0.33262,4.24127 -0.49805,6.30469 -4.09093,1.06441 -8.14625,1.67786 -12.19922,1.72852 -4.05258,-0.0505 -8.10829,-0.66411 -12.19922,-1.72852 -0.16543,-2.06342 -0.3833,-4.18164 -0.5,-6.30469 -0.60851,-11.0782 -1.30246,-22.15498 -1.75195,-33.24023 -0.41858,-10.32927 -0.64704,-20.6689 -0.81055,-31.00586 -0.14671,-9.31808 -0.24194,-18.63944 -0.0898,-27.95508 0.21416,-13.14482 0.55542,-26.29189 1.07031,-39.42773 0.48476,-12.37666 1.28331,-24.74048 1.88477,-37.11328 0.0519,-1.06826 0.50447,-1.29919 1.39062,-1.49219 3.65029,-0.79575 7.32082,-1.17001 11.00586,-1.17578 z m 78.68555,0 c 3.68517,0.006 7.35621,0.38003 11.00586,1.17578 0.88692,0.19364 1.33804,0.42393 1.39062,1.49219 0.60146,12.3728 1.40001,24.73649 1.88477,37.11328 0.51553,13.13584 0.8555,26.28291 1.07031,39.42773 0.1521,9.31564 0.0578,18.637 -0.0898,27.95508 -0.16338,10.33696 -0.39248,20.67659 -0.81055,31.00586 -0.44949,11.08525 -1.14357,22.1619 -1.75195,33.24023 -0.11683,2.12241 -0.33457,4.24127 -0.5,6.30469 -4.0908,1.06441 -8.14626,1.67786 -12.19922,1.72852 -4.0531,-0.0505 -8.1083,-0.66411 -12.19922,-1.72852 -0.16543,-2.06342 -0.38071,-4.18164 -0.49805,-6.30469 -0.60851,-11.0782 -1.30259,-22.15498 -1.75195,-33.24023 -0.41871,-10.32927 -0.64704,-20.6689 -0.81055,-31.00586 -0.14735,-9.31808 -0.24194,-18.63944 -0.0898,-27.95508 0.2148,-13.14482 0.55478,-26.29189 1.07031,-39.42773 0.48411,-12.37666 1.28331,-24.74048 1.88477,-37.11328 0.0519,-1.06826 0.50447,-1.29919 1.39062,-1.49219 3.65029,-0.79575 7.31887,-1.17001 11.00391,-1.17578 z m 66.24023,0 c 3.68517,0.006 7.35673,0.38003 11.00586,1.17578 0.8868,0.19364 1.33805,0.42393 1.39063,1.49219 0.60145,12.3728 1.39937,24.73649 1.88476,37.11328 0.51489,13.13584 0.85538,26.28291 1.07031,39.42773 0.15261,9.31564 0.0579,18.637 -0.0898,27.95508 -0.16351,10.33696 -0.39184,20.67659 -0.81055,31.00586 -0.44884,11.08525 -1.14344,22.1619 -1.75195,33.24023 -0.11683,2.12241 -0.33393,4.24127 -0.5,6.30469 -4.09028,1.06441 -8.14612,1.67786 -12.19922,1.72852 -4.05245,-0.0505 -8.1057,-0.66411 -12.19726,-1.72852 -0.16556,-2.06342 -0.38279,-4.18164 -0.5,-6.30469 -0.60787,-11.0782 -1.30116,-22.15498 -1.75,-33.24023 -0.41936,-10.32927 -0.64899,-20.6689 -0.8125,-31.00586 -0.14748,-9.31808 -0.24181,-18.63944 -0.0899,-27.95508 0.21481,-13.14482 0.55529,-26.29189 1.07032,-39.42773 0.48398,-12.37666 1.28279,-24.74048 1.88476,-37.11328 0.0521,-1.06826 0.50396,-1.29919 1.39063,-1.49219 3.6499,-0.79575 7.3195,-1.17001 11.0039,-1.17578 z M 131.00391,368.81641 H 381.5293 v 19.27148 H 131.00391 Z m -10.70508,26.76562 H 391.70117 V 409.5 H 120.29883 Z"
     transform="translate(254.17352,248.60299)" /></g>
</svg>
