<?xml version="1.0" encoding="UTF-8" standalone="no"?>
<!-- Generator: Adobe Illustrator 16.0.0, SVG Export Plug-In . SVG Version: 6.00 Build 0)  -->

<svg
   version="1.2"
   id="Layer_1"
   x="0px"
   y="0px"
   viewBox="0 0 512 512"
   xml:space="preserve"
   width="512"
   height="512"
   sodipodi:docname="icon_v2.svg"
   inkscape:version="1.4 (e7c3feb1, 2024-10-09)"
   inkscape:export-filename="icon_v2-export.svg"
   inkscape:export-xdpi="96"
   inkscape:export-ydpi="96"
   xmlns:inkscape="http://www.inkscape.org/namespaces/inkscape"
   xmlns:sodipodi="http://sodipodi.sourceforge.net/DTD/sodipodi-0.dtd"
   xmlns="http://www.w3.org/2000/svg"
   xmlns:svg="http://www.w3.org/2000/svg"><sodipodi:namedview
   id="namedview1"
   pagecolor="#ffffff"
   bordercolor="#000000"
   borderopacity="0.25"
   inkscape:showpageshadow="2"
   inkscape:pageopacity="0.0"
   inkscape:pagecheckerboard="0"
   inkscape:deskcolor="#d1d1d1"
   inkscape:zoom="1.42"
   inkscape:cx="275"
   inkscape:cy="282.39437"
   inkscape:window-width="1280"
   inkscape:window-height="1027"
   inkscape:window-x="0"
   inkscape:window-y="25"
   inkscape:window-maximized="0"
   inkscape:current-layer="Layer_1"><inkscape:page
     x="0"
     y="0"
     width="512"
     height="512"
     id="page2"
     margin="0"
     bleed="0" /></sodipodi:namedview><defs
   id="defs20" />
<g
   id="layer3"
   style="display:inline"
   inkscape:label="background"><rect
     style="display:inline;fill:#000000;fill-opacity:1;stroke-width:1.51716"
     id="rect22-1"
     width="512"
     height="512"
     x="0"
     y="0"
     rx="96"
     ry="96"
     inkscape:label="rounded-blue" /></g>
<g
   id="A"
   transform="matrix(0.7711856,0,0,0.7711856,-14.556975,-6.8786526)"
   style="display:inline">
	
	
	
	
	
	
	
	
	
	<g
   id="g1"
   style="display:none;fill:#49a349;fill-opacity:1"
   inkscape:label="original"><rect
     x="139.201"
     y="558.56097"
     width="423.263"
     height="21.705"
     id="rect7"
     style="fill:#49a349;fill-opacity:1" /><rect
     x="155.897"
     y="516.81799"
     width="390.70401"
     height="30.055"
     id="rect8"
     style="fill:#49a349;fill-opacity:1" /><rect
     x="153.39301"
     y="174.535"
     width="388.617"
     height="41.742001"
     id="rect9"
     style="fill:#49a349;fill-opacity:1" /><polygon
     points="347.701,162.012 539.506,162.012 551.193,149.072 347.701,101.486 144.21,149.072 155.897,162.012 "
     id="polygon9"
     style="fill:#49a349;fill-opacity:1" /><path
     d="m 209.446,348.42 c -0.335,-20.5 -0.866,-41.001 -1.669,-61.487 -0.756,-19.302 -2,-38.585 -2.939,-57.881 -0.081,-1.666 -0.787,-2.026 -2.169,-2.328 -5.693,-1.241 -11.416,-1.824 -17.163,-1.833 -5.747,0.009 -11.47,0.592 -17.163,1.833 -1.382,0.301 -2.088,0.662 -2.169,2.328 -0.939,19.296 -2.183,38.579 -2.939,57.881 -0.803,20.486 -1.335,40.987 -1.669,61.487 -0.237,14.528 -0.09,29.067 0.14,43.599 0.254,16.121 0.612,32.246 1.265,48.355 0.7,17.288 1.782,34.562 2.731,51.839 0.182,3.311 0.521,6.613 0.78,9.831 6.379,1.66 12.704,2.619 19.025,2.698 6.321,-0.079 12.645,-1.038 19.025,-2.698 0.259,-3.218 0.597,-6.521 0.779,-9.831 0.949,-17.277 2.031,-34.551 2.731,-51.839 0.653,-16.109 1.011,-32.234 1.265,-48.355 0.229,-14.532 0.377,-29.071 0.139,-43.599 z"
     id="path17"
     style="fill:#49a349;fill-opacity:1" /><path
     d="m 315.257,348.42 c -0.335,-20.5 -0.867,-41.001 -1.67,-61.487 -0.757,-19.302 -2.001,-38.585 -2.939,-57.881 -0.081,-1.666 -0.786,-2.026 -2.169,-2.328 -5.692,-1.241 -11.416,-1.824 -17.162,-1.833 -5.747,0.009 -11.47,0.592 -17.163,1.833 -1.382,0.301 -2.088,0.662 -2.169,2.328 -0.938,19.296 -2.183,38.579 -2.939,57.881 -0.803,20.486 -1.335,40.987 -1.669,61.487 -0.237,14.528 -0.09,29.067 0.139,43.599 0.255,16.121 0.612,32.246 1.265,48.355 0.701,17.288 1.782,34.562 2.731,51.839 0.182,3.311 0.521,6.613 0.779,9.831 6.38,1.66 12.705,2.619 19.025,2.698 6.321,-0.079 12.645,-1.038 19.025,-2.698 0.258,-3.218 0.597,-6.521 0.779,-9.831 0.948,-17.277 2.03,-34.551 2.73,-51.839 0.653,-16.109 1.011,-32.234 1.266,-48.355 0.231,-14.532 0.378,-29.071 0.141,-43.599 z"
     id="path18"
     style="fill:#49a349;fill-opacity:1" /><path
     d="m 437.972,348.42 c -0.335,-20.5 -0.866,-41.001 -1.67,-61.487 -0.756,-19.302 -2,-38.585 -2.938,-57.881 -0.082,-1.666 -0.787,-2.026 -2.17,-2.328 -5.692,-1.241 -11.415,-1.824 -17.162,-1.833 -5.747,0.009 -11.47,0.592 -17.163,1.833 -1.382,0.301 -2.088,0.662 -2.169,2.328 -0.938,19.296 -2.183,38.579 -2.938,57.881 -0.804,20.486 -1.335,40.987 -1.67,61.487 -0.237,14.528 -0.09,29.067 0.14,43.599 0.255,16.121 0.612,32.246 1.265,48.355 0.701,17.288 1.782,34.562 2.731,51.839 0.183,3.311 0.521,6.613 0.779,9.831 6.38,1.66 12.704,2.619 19.025,2.698 6.321,-0.079 12.645,-1.038 19.025,-2.698 0.258,-3.218 0.597,-6.521 0.779,-9.831 0.949,-17.277 2.03,-34.551 2.731,-51.839 0.652,-16.109 1.01,-32.234 1.265,-48.355 0.23,-14.532 0.377,-29.071 0.14,-43.599 z"
     id="path19"
     style="fill:#49a349;fill-opacity:1" /><path
     d="m 541.277,348.42 c -0.335,-20.5 -0.866,-41.001 -1.669,-61.487 -0.757,-19.302 -2.001,-38.585 -2.939,-57.881 -0.082,-1.666 -0.787,-2.026 -2.17,-2.328 -5.691,-1.241 -11.415,-1.824 -17.162,-1.833 -5.746,0.009 -11.47,0.592 -17.162,1.833 -1.383,0.301 -2.088,0.662 -2.169,2.328 -0.939,19.296 -2.184,38.579 -2.939,57.881 -0.803,20.486 -1.335,40.987 -1.67,61.487 -0.237,14.528 -0.09,29.067 0.14,43.599 0.255,16.121 0.612,32.246 1.266,48.355 0.7,17.288 1.782,34.562 2.73,51.839 0.183,3.311 0.521,6.613 0.779,9.831 6.381,1.66 12.705,2.619 19.025,2.698 6.321,-0.079 12.646,-1.038 19.025,-2.698 0.259,-3.218 0.597,-6.521 0.779,-9.831 0.949,-17.277 2.031,-34.551 2.731,-51.839 0.653,-16.109 1.01,-32.234 1.265,-48.355 0.23,-14.532 0.378,-29.071 0.14,-43.599 z"
     id="path20"
     style="fill:#49a349;fill-opacity:1" /></g>
<path
   id="path62"
   style="display:inline;fill:#2696ee;fill-opacity:1"
   d="m 347.70218,101.48708 -203.49147,47.58551 11.68554,12.93919 h 191.80593 191.80339 l 11.68807,-12.93919 z m -194.30816,73.04854 v 41.74021 h 388.61632 v -41.74021 z m 32.11117,50.35621 c -5.747,0.009 -11.46808,0.59009 -17.16108,1.83109 -1.382,0.301 -2.08946,0.66401 -2.17046,2.33001 -0.939,19.296 -2.18185,38.57865 -2.93785,57.88065 -0.803,20.486 -1.335,40.9871 -1.669,61.4871 -0.237,14.528 -0.0907,29.06716 0.1393,43.59916 0.254,16.121 0.61078,32.24391 1.26378,48.35291 0.7,17.288 1.7837,34.56333 2.7327,51.84033 0.182,3.311 0.52105,6.61365 0.78005,9.83165 6.379,1.66 12.70409,2.61825 19.02509,2.69725 6.321,-0.079 12.64509,-1.03725 19.02509,-2.69725 0.259,-3.218 0.59551,-6.52165 0.77751,-9.83165 0.949,-17.277 2.03271,-34.55233 2.73271,-51.84033 0.653,-16.109 1.00978,-32.23191 1.26378,-48.35291 0.229,-14.532 0.37729,-29.07116 0.13929,-43.59916 -0.335,-20.5 -0.866,-41.0011 -1.669,-61.4871 -0.756,-19.302 -1.99884,-38.58465 -2.93784,-57.88065 -0.081,-1.666 -0.78847,-2.02801 -2.17047,-2.33001 -5.693,-1.241 -11.4166,-1.82209 -17.1636,-1.83109 z m 105.81059,0 c -5.747,0.009 -11.46807,0.59009 -17.16107,1.83109 -1.382,0.301 -2.08946,0.66401 -2.17046,2.33001 -0.938,19.296 -2.18185,38.57865 -2.93785,57.88065 -0.803,20.486 -1.335,40.9871 -1.669,61.4871 -0.237,14.528 -0.0897,29.06716 0.13929,43.59916 0.255,16.121 0.61078,32.24391 1.26378,48.35291 0.701,17.288 1.78371,34.56333 2.73271,51.84033 0.182,3.311 0.51951,6.61365 0.77751,9.83165 6.38,1.66 12.70509,2.61825 19.02509,2.69725 6.321,-0.079 12.64509,-1.03725 19.02509,-2.69725 0.258,-3.218 0.59805,-6.52165 0.78005,-9.83165 0.948,-17.277 2.03017,-34.55233 2.73017,-51.84033 0.653,-16.109 1.00878,-32.23191 1.26378,-48.35291 0.231,-14.532 0.37883,-29.07116 0.14183,-43.59916 -0.335,-20.5 -0.866,-41.0011 -1.669,-61.4871 -0.757,-19.302 -2.00238,-38.58465 -2.94038,-57.88065 -0.081,-1.666 -0.78493,-2.02801 -2.16793,-2.33001 -5.692,-1.241 -11.41761,-1.82209 -17.16361,-1.83109 z m 122.71588,0 c -5.747,0.009 -11.47061,0.59009 -17.16361,1.83109 -1.382,0.301 -2.08692,0.66401 -2.16792,2.33001 -0.938,19.296 -2.18285,38.57865 -2.93785,57.88065 -0.804,20.486 -1.33653,40.9871 -1.67153,61.4871 -0.237,14.528 -0.0882,29.06716 0.14182,43.59916 0.255,16.121 0.61078,32.24391 1.26378,48.35291 0.701,17.288 1.78371,34.56333 2.73271,51.84033 0.183,3.311 0.51951,6.61365 0.77751,9.83165 6.38,1.66 12.70409,2.61825 19.02509,2.69725 6.321,-0.079 12.64509,-1.03725 19.02509,-2.69725 0.258,-3.218 0.59805,-6.52165 0.78005,-9.83165 0.949,-17.277 2.02917,-34.55233 2.73017,-51.84033 0.652,-16.109 1.00878,-32.23191 1.26378,-48.35291 0.23,-14.532 0.37883,-29.07116 0.14183,-43.59916 -0.335,-20.5 -0.86753,-41.0011 -1.67153,-61.4871 -0.756,-19.302 -1.99985,-38.58465 -2.93785,-57.88065 -0.082,-1.666 -0.78746,-2.02801 -2.17046,-2.33001 -5.692,-1.241 -11.41408,-1.82209 -17.16108,-1.83109 z m 103.30583,0 c -5.746,0.009 -11.47161,0.59009 -17.16361,1.83109 -1.383,0.301 -2.08692,0.66401 -2.16792,2.33001 -0.939,19.296 -2.18285,38.57865 -2.93785,57.88065 -0.803,20.486 -1.33653,40.9871 -1.67153,61.4871 -0.237,14.528 -0.0907,29.06716 0.13929,43.59916 0.255,16.121 0.61231,32.24391 1.26631,48.35291 0.7,17.288 1.78217,34.56333 2.73017,51.84033 0.183,3.311 0.52205,6.61365 0.78005,9.83165 6.381,1.66 12.70509,2.61825 19.02509,2.69725 6.321,-0.079 12.64609,-1.03725 19.02509,-2.69725 0.259,-3.218 0.59552,-6.52165 0.77752,-9.83165 0.949,-17.277 2.0327,-34.55233 2.7327,-51.84033 0.653,-16.109 1.00878,-32.23191 1.26378,-48.35291 0.23,-14.532 0.3773,-29.07116 0.1393,-43.59916 -0.335,-20.5 -0.866,-41.0011 -1.669,-61.4871 -0.757,-19.302 -1.99985,-38.58465 -2.93785,-57.88065 -0.082,-1.666 -0.78746,-2.02801 -2.17046,-2.33001 -5.691,-1.241 -11.41408,-1.82209 -17.16108,-1.83109 z M 155.89625,516.81754 v 30.05468 h 390.70574 v -30.05468 z m -16.69507,41.74275 v 21.70461 h 423.26265 v -21.70461 z"
   inkscape:label="combined" /></g></svg>
